<svg width="18" height="18" viewBox="0 0 18 18" fill="none" xmlns="http://www.w3.org/2000/svg">
<path d="M18 9C18 13.9706 13.9706 18 9 18C4.02944 18 0 13.9706 0 9C0 4.02944 4.02944 0 9 0C13.9706 0 18 4.02944 18 9ZM1.20851 9C1.20851 13.3031 4.69688 16.7915 9 16.7915C13.3031 16.7915 16.7915 13.3031 16.7915 9C16.7915 4.69688 13.3031 1.20851 9 1.20851C4.69688 1.20851 1.20851 4.69688 1.20851 9Z" fill="#7A7A7A"/>
<path d="M5.18153 12.8184C5.80946 13.4463 6.58257 13.9097 7.43236 14.1675C8.28216 14.4252 9.18242 14.4695 10.0534 14.2962C10.9244 14.123 11.7392 13.7376 12.4256 13.1742C13.1121 12.6109 13.649 11.8869 13.9889 11.0665C14.3287 10.246 14.4609 9.35444 14.3739 8.47068C14.2869 7.58692 13.9832 6.73827 13.4898 5.9999C12.9965 5.26152 12.3286 4.65622 11.5454 4.2376C10.7623 3.81898 9.88794 3.59998 8.9999 3.59998V8.99998L5.18153 12.8184Z" fill="#7A7A7A"/>
</svg>
